HIERARCHY
ROOT Hips
{
	OFFSET 0.000000 103.266502 0.000000
	CHANNELS 6 Xposition Yposition Zposition Xrotation Yrotation Zrotation 
	JOINT Spine
	{
		OFFSET -0.002400 12.777504 0.315300
		CHANNELS 3 Xrotation Yrotation Zrotation
		JOINT Spine1
		{
			OFFSET -0.002067 5.816869 0.032633
			CHANNELS 3 Xrotation Yrotation Zrotation
			JOINT Spine1_split
			{
				OFFSET -0.002067 5.816869 0.032633
				CHANNELS 3 Xrotation Yrotation Zrotation
				JOINT Spine2
				{
					OFFSET -0.002067 5.816869 0.032633
					CHANNELS 3 Xrotation Yrotation Zrotation
					JOINT Neck
					{
						OFFSET -0.003700 21.199493 -0.826900
						CHANNELS 3 Xrotation Yrotation Zrotation
						JOINT Head
						{
							OFFSET 0.000000 20.442200 4.834800
							CHANNELS 3 Xrotation Yrotation Zrotation
							JOINT HeadTop_End
							{
								OFFSET 0.000000 34.668396 4.968400
								CHANNELS 3 Xrotation Yrotation Zrotation
								End Site
								{
									OFFSET 0.000000 0.000000 0.000000
								}
							}
						}
					}
					JOINT LeftShoulder
					{
						OFFSET 3.288150 8.794197 -1.372250
						CHANNELS 3 Xrotation Yrotation Zrotation
						JOINT LeftShoulder_split
						{
							OFFSET 3.288150 8.794197 -1.372250
							CHANNELS 3 Xrotation Yrotation Zrotation
							JOINT LeftArm
							{
								OFFSET 11.953299 -2.279007 -0.146200
								CHANNELS 3 Xrotation Yrotation Zrotation
								JOINT LeftForeArm
								{
									OFFSET 18.448900 0.000000 0.000000
									CHANNELS 3 Xrotation Yrotation Zrotation
									JOINT LeftHand
									{
										OFFSET 29.527798 0.000000 0.000000
										CHANNELS 3 Xrotation Yrotation Zrotation
										JOINT LeftHandThumb1
										{
											OFFSET 10.739754 -2.369614 9.225399
											CHANNELS 3 Xrotation Yrotation Zrotation
											JOINT LeftHandThumb2
											{
												OFFSET 4.926170 -2.844131 2.844125
												CHANNELS 3 Xrotation Yrotation Zrotation
												JOINT LeftHandThumb3
												{
													OFFSET 4.614891 -2.664413 2.664409
													CHANNELS 3 Xrotation Yrotation Zrotation
													JOINT LeftHandThumb4
													{
														OFFSET 4.432465 -2.559082 2.559083
														CHANNELS 3 Xrotation Yrotation Zrotation
														End Site
														{
															OFFSET 0.000000 0.000000 0.000000
														}
													}
												}
											}
										}
										JOINT LeftHandIndex1
										{
											OFFSET 26.467674 0.187653 6.405298
											CHANNELS 3 Xrotation Yrotation Zrotation
											JOINT LeftHandIndex2
											{
												OFFSET 8.792900 0.000000 0.000000
												CHANNELS 3 Xrotation Yrotation Zrotation
												JOINT LeftHandIndex3
												{
													OFFSET 10.075203 0.000000 0.000000
													CHANNELS 3 Xrotation Yrotation Zrotation
													End Site
													{
														OFFSET 0.000000 0.000000 0.000000
													}
												}
											}
										}
										JOINT LeftHandMiddle1
										{
											OFFSET 25.764404 0.000000 0.000000
											CHANNELS 3 Xrotation Yrotation Zrotation
											JOINT LeftHandMiddle2
											{
												OFFSET 9.393974 0.000000 0.000000
												CHANNELS 3 Xrotation Yrotation Zrotation
												JOINT LeftHandMiddle3
												{
													OFFSET 10.771950 0.000000 0.000000
													CHANNELS 3 Xrotation Yrotation Zrotation
													End Site
													{
														OFFSET 0.000000 0.000000 0.000000
													}
												}
											}
										}
										JOINT LeftHandRing1
										{
											OFFSET 24.660927 0.144547 -6.225808
											CHANNELS 3 Xrotation Yrotation Zrotation
											JOINT LeftHandRing2
											{
												OFFSET 9.393799 0.000000 0.000000
												CHANNELS 3 Xrotation Yrotation Zrotation
												JOINT LeftHandRing3
												{
													OFFSET 9.928497 0.000000 0.000000
													CHANNELS 3 Xrotation Yrotation Zrotation
													End Site
													{
														OFFSET 0.000000 0.000000 0.000000
													}
												}
											}
										}
										JOINT LeftHandPinky1
										{
											OFFSET 23.655350 0.125290 -12.815412
											CHANNELS 3 Xrotation Yrotation Zrotation
											JOINT LeftHandPinky2
											{
												OFFSET 8.425102 0.000000 0.000000
												CHANNELS 3 Xrotation Yrotation Zrotation
												JOINT LeftHandPinky3
												{
													OFFSET 8.147003 0.000000 0.000000
													CHANNELS 3 Xrotation Yrotation Zrotation
													End Site
													{
														OFFSET 0.000000 0.000000 0.000000
													}
												}
											}
										}
									}
								}
							}
						}
					}
					JOINT RightShoulder
					{
						OFFSET -3.249400 8.794197 -1.372250
						CHANNELS 3 Xrotation Yrotation Zrotation
						JOINT RightShoulder_split
						{
							OFFSET -3.249400 8.794197 -1.372250
							CHANNELS 3 Xrotation Yrotation Zrotation
							JOINT RightArm
							{
								OFFSET -11.953299 -2.279007 -0.146200
								CHANNELS 3 Xrotation Yrotation Zrotation
								JOINT RightForeArm
								{
									OFFSET -18.448900 0.000000 0.000000
									CHANNELS 3 Xrotation Yrotation Zrotation
									JOINT RightHand
									{
										OFFSET -29.527802 0.000000 0.000000
										CHANNELS 3 Xrotation Yrotation Zrotation
										JOINT RightHandThumb1
										{
											OFFSET -10.739754 -2.369614 9.225399
											CHANNELS 3 Xrotation Yrotation Zrotation
											JOINT RightHandThumb2
											{
												OFFSET -4.926170 -2.844131 2.844125
												CHANNELS 3 Xrotation Yrotation Zrotation
												JOINT RightHandThumb3
												{
													OFFSET -4.614891 -2.664413 2.664409
													CHANNELS 3 Xrotation Yrotation Zrotation
													JOINT RightHandThumb4
													{
														OFFSET -4.432465 -2.559082 2.559083
														CHANNELS 3 Xrotation Yrotation Zrotation
														End Site
														{
															OFFSET 0.000000 0.000000 0.000000
														}
													}
												}
											}
										}
										JOINT RightHandIndex1
										{
											OFFSET -26.467674 0.187653 6.405298
											CHANNELS 3 Xrotation Yrotation Zrotation
											JOINT RightHandIndex2
											{
												OFFSET -8.792900 0.000000 0.000000
												CHANNELS 3 Xrotation Yrotation Zrotation
												JOINT RightHandIndex3
												{
													OFFSET -10.075203 0.000000 0.000000
													CHANNELS 3 Xrotation Yrotation Zrotation
													End Site
													{
														OFFSET 0.000000 0.000000 0.000000
													}
												}
											}
										}
										JOINT RightHandMiddle1
										{
											OFFSET -25.764404 0.000000 0.000000
											CHANNELS 3 Xrotation Yrotation Zrotation
											JOINT RightHandMiddle2
											{
												OFFSET -9.393974 0.000000 0.000000
												CHANNELS 3 Xrotation Yrotation Zrotation
												JOINT RightHandMiddle3
												{
													OFFSET -10.771950 0.000000 0.000000
													CHANNELS 3 Xrotation Yrotation Zrotation
													End Site
													{
														OFFSET 0.000000 0.000000 0.000000
													}
												}
											}
										}
										JOINT RightHandRing1
										{
											OFFSET -24.660927 0.144547 -6.225808
											CHANNELS 3 Xrotation Yrotation Zrotation
											JOINT RightHandRing2
											{
												OFFSET -9.393799 0.000000 0.000000
												CHANNELS 3 Xrotation Yrotation Zrotation
												JOINT RightHandRing3
												{
													OFFSET -9.928497 0.000000 0.000000
													CHANNELS 3 Xrotation Yrotation Zrotation
													End Site
													{
														OFFSET 0.000000 0.000000 0.000000
													}
												}
											}
										}
										JOINT RightHandPinky1
										{
											OFFSET -23.655350 0.125290 -12.815412
											CHANNELS 3 Xrotation Yrotation Zrotation
											JOINT RightHandPinky2
											{
												OFFSET -8.425102 0.000000 0.000000
												CHANNELS 3 Xrotation Yrotation Zrotation
												JOINT RightHandPinky3
												{
													OFFSET -8.147003 0.000000 0.000000
													CHANNELS 3 Xrotation Yrotation Zrotation
													End Site
													{
														OFFSET 0.000000 0.000000 0.000000
													}
												}
											}
										}
									}
								}
							}
						}
					}
				}
			}
		}
	}
	JOINT LeftUpLeg
	{
		OFFSET 11.394100 -6.187798 -0.413800
		CHANNELS 3 Xrotation Yrotation Zrotation
		JOINT LeftLeg
		{
			OFFSET 0.430247 -32.302673 3.732800
			CHANNELS 3 Xrotation Yrotation Zrotation
			JOINT LeftFoot
			{
				OFFSET -0.430247 -48.264931 -6.423300
				CHANNELS 3 Xrotation Yrotation Zrotation
				JOINT LeftToeBase
				{
					OFFSET 4.230900 -16.068199 23.438400
					CHANNELS 3 Xrotation Yrotation Zrotation
					JOINT LeftToe_End
					{
						OFFSET 4.510700 0.695400 19.974600
						CHANNELS 3 Xrotation Yrotation Zrotation
						End Site
						{
							OFFSET 0.000000 0.000000 0.000000
						}
					}
				}
			}
		}
	}
	JOINT RightUpLeg
	{
		OFFSET -11.333700 -6.187798 -0.413800
		CHANNELS 3 Xrotation Yrotation Zrotation
		JOINT RightLeg
		{
			OFFSET -0.430392 -32.302628 3.733000
			CHANNELS 3 Xrotation Yrotation Zrotation
			JOINT RightFoot
			{
				OFFSET 0.430392 -48.264973 -6.423500
				CHANNELS 3 Xrotation Yrotation Zrotation
				JOINT RightToeBase
				{
					OFFSET -4.230900 -16.068199 23.438400
					CHANNELS 3 Xrotation Yrotation Zrotation
					JOINT RightToe_End
					{
						OFFSET -4.510700 0.695400 19.974600
						CHANNELS 3 Xrotation Yrotation Zrotation
						End Site
						{
							OFFSET 0.000000 0.000000 0.000000
						}
					}
				}
			}
		}
	}
}
MOTION
Frames: 4
Frame Time: 0.016667
-5.423198 90.480400 6.392983 -7.667298 22.794368 7.893025 19.086916 1.250436 1.137490 5.234397 1.638206 -0.510231 0.000000 0.000000 0.000000 5.225528 1.690297 -0.516647 -17.295330 -9.726843 -7.669280 -20.599087 -12.220334 0.353305 -0.000000 -0.000001 -0.000000 -0.697449 -12.691484 -24.679618 0.000000 0.000000 0.000000 -13.018061 -5.162529 -28.488921 51.978750 -46.839658 7.482888 4.023829 -22.781635 14.370768 11.432768 11.898667 2.278012 0.907263 24.171841 -3.294981 0.000001 -0.000017 -0.000005 -0.000003 0.000002 0.000000 -4.825731 9.288218 -23.825226 3.434090 9.250166 -40.028392 0.000000 -0.000001 -0.000000 -11.628056 16.087797 -27.374742 11.222073 9.790876 -61.810350 0.000002 -0.000002 -0.000001 -8.924429 18.188761 -48.130762 11.602467 5.110926 -60.456374 0.000001 0.000000 -0.000001 -5.365008 8.158731 -54.955746 9.871764 -13.977181 -74.788427 0.000004 0.000002 -0.000004 6.242224 -2.614791 -11.084388 0.000000 0.000000 0.000000 -35.911376 -11.573015 -6.604745 -129.166104 14.300506 149.579340 18.373687 2.814411 -8.754306 -10.063570 -12.114444 -5.432839 -8.224825 -5.483063 5.365289 -0.000006 0.000004 0.000000 -0.000002 0.000001 0.000002 4.411659 -5.661977 62.206276 9.270950 -12.376248 79.811758 -0.000001 0.000001 -0.000001 -5.517162 -19.375245 62.311440 15.444345 -10.143927 85.739952 0.000002 0.000001 -0.000000 -7.692923 -21.405997 73.131238 13.187953 -6.413926 74.081898 -0.000001 0.000000 0.000002 -6.411625 -22.996130 83.381618 9.054132 13.497757 82.144745 0.000001 -0.000001 0.000003 -24.467278 -13.502570 4.961425 43.119975 0.003652 0.287418 -14.375096 -5.794716 -16.447154 -0.000027 -0.000001 -0.000002 -0.000000 0.000001 -0.000000 -21.001090 -26.186527 -27.737349 51.219729 -0.333692 -0.381535 -27.644779 -4.114534 9.634471 -0.000043 -0.000002 0.000000 0.000000 -0.000002 0.000000 
-5.665055 90.634415 6.939174 -7.898368 24.488042 7.835161 19.001315 1.151284 1.197136 5.096424 1.511981 -0.476950 0.000000 0.000000 0.000000 5.088407 1.550687 -0.475986 -18.172862 -7.374424 -11.412605 -20.891286 -12.073567 1.777839 0.000000 0.000000 -0.000000 -0.787866 -12.075478 -26.714946 0.000000 0.000000 0.000000 -11.942302 -3.432192 -26.261526 55.390860 -49.285190 10.889097 5.145022 -22.468981 14.527686 11.432757 11.898659 2.278028 1.501896 25.466705 -3.312465 -0.000002 -0.000012 -0.000001 -0.000002 0.000003 -0.000000 -3.794584 7.957275 -23.971118 4.254769 10.064931 -46.827692 0.000001 -0.000000 -0.000001 -11.756373 14.887295 -29.374209 11.904640 9.966840 -65.739594 -0.000000 0.000002 0.000000 -9.476058 18.032217 -49.017788 11.714556 5.347348 -61.842876 0.000001 -0.000001 0.000001 -6.800933 9.633143 -56.189009 9.701547 -13.949382 -75.709403 0.000002 -0.000000 0.000001 7.717156 -7.373782 -5.050556 0.000000 0.000000 0.000000 -43.972153 -21.360508 -11.904039 -118.831331 10.484317 148.086479 21.961613 11.633988 -14.248318 -10.063567 -12.114465 -5.432871 -8.226149 -5.485139 5.369675 -0.000007 0.000001 -0.000001 -0.000002 0.000001 0.000000 2.105032 -3.843912 56.888646 9.938181 -12.409278 83.561190 -0.000002 0.000000 0.000001 -5.678335 -19.240254 61.807311 15.499924 -10.129640 85.942631 -0.000001 0.000000 -0.000004 -7.133060 -21.873423 74.675585 13.186724 -6.412959 74.079986 0.000000 0.000000 0.000001 -5.396357 -23.712723 86.009109 9.042679 13.516147 81.894760 0.000001 0.000002 0.000000 -24.097029 -15.267138 4.785849 42.504684 0.007253 0.282203 -14.299036 -5.763091 -16.776423 -0.000027 -0.000001 -0.000002 -0.000000 0.000001 -0.000000 -19.731054 -28.165453 -27.338717 50.155650 -0.314586 -0.362476 -27.937480 -4.518193 9.545609 -0.000043 -0.000002 0.000000 0.000000 -0.000000 0.000000 
-5.840080 90.826508 7.511822 -8.044242 26.591670 8.132951 19.005946 0.757584 1.323092 5.119968 0.756775 -0.529777 0.000000 0.000000 0.000000 5.119976 0.792239 -0.531184 -18.019887 -6.128814 -11.431358 -23.168533 -10.769682 0.960114 -0.000002 -0.000000 -0.000000 -0.786543 -12.473183 -26.068155 0.000000 0.000000 0.000000 -9.832097 0.874620 -25.954324 55.683735 -52.355784 13.970385 5.154072 -22.384063 15.753930 11.432772 11.898675 2.278027 2.008806 26.268607 -3.133978 0.000002 -0.000013 -0.000003 -0.000001 0.000002 -0.000000 -2.251135 6.806035 -25.190445 5.503161 11.025383 -56.130324 0.000000 -0.000003 -0.000003 -11.459821 14.203332 -33.122651 12.927601 10.135843 -71.691906 0.000000 0.000000 0.000000 -10.290470 17.678198 -51.680988 12.170170 5.710926 -65.667597 0.000000 0.000003 -0.000001 -9.073671 11.365273 -57.531544 9.482006 -13.836139 -77.686695 0.000001 0.000002 0.000000 8.148600 -9.861670 -1.653010 0.000000 0.000000 0.000000 -54.292412 -30.007808 -14.466131 -110.199918 8.391179 146.424803 18.072110 15.336307 -13.285893 -10.063564 -12.114465 -5.432857 -8.227457 -5.487221 5.374024 -0.000004 0.000001 -0.000001 0.000001 0.000001 0.000001 1.196545 -3.158872 56.657280 10.312579 -12.414092 85.657703 0.000002 -0.000002 -0.000001 -5.742778 -19.186650 61.604010 15.602927 -10.102561 86.317451 0.000002 -0.000000 0.000000 -6.814859 -22.127527 75.537692 13.249227 -6.405604 74.350577 0.000000 0.000001 0.000001 -4.320113 -24.385633 88.689842 9.030335 13.536118 81.623008 -0.000002 0.000001 0.000002 -23.891845 -17.241310 4.054869 41.602211 0.006670 0.272411 -14.059988 -5.679938 -17.031901 -0.000027 -0.000001 -0.000002 -0.000000 0.000001 0.000000 -18.703945 -30.294017 -27.404020 49.023625 -0.287019 -0.344606 -28.219587 -5.043534 9.554600 -0.000043 -0.000002 0.000000 0.000000 -0.000000 0.000000 
-6.000691 91.039314 7.986078 -7.993199 28.462307 8.375500 19.015725 0.225742 1.463903 5.137559 -0.395260 -0.742506 0.000000 0.000000 0.000000 5.145103 -0.355855 -0.748200 -17.870377 -5.140435 -11.214738 -24.990207 -9.168331 -0.055151 -0.000002 0.000001 0.000000 -0.729883 -12.936517 -24.594046 0.000000 0.000000 0.000000 -7.448413 5.738897 -26.622699 53.665869 -55.184090 15.413749 5.030942 -22.352303 16.946797 11.432763 11.898674 2.278047 2.417350 26.741171 -2.824126 -0.000004 -0.000012 -0.000001 -0.000001 -0.000001 -0.000004 -0.680607 5.686682 -26.936062 6.891992 11.728962 -65.387826 -0.000001 0.000002 -0.000001 -11.129746 13.721689 -37.247494 13.953051 10.245315 -77.699344 -0.000000 -0.000002 0.000001 -11.165322 17.079404 -55.081108 12.723732 6.058981 -69.966860 0.000000 -0.000000 0.000001 -11.557518 12.642537 -58.779645 9.272229 -13.696380 -79.792688 0.000001 -0.000000 -0.000001 8.112587 -11.609559 1.893597 0.000000 0.000000 0.000000 -67.056147 -34.147609 -17.067552 -102.494228 5.567627 145.072371 10.148216 17.432284 -8.852115 -10.063569 -12.114479 -5.432840 -8.228746 -5.489368 5.378382 -0.000006 0.000002 -0.000005 0.000001 0.000001 0.000000 0.713225 -2.871478 56.761321 10.462541 -12.409620 86.501218 -0.000002 -0.000001 -0.000001 -5.871319 -19.074751 61.194076 15.711435 -10.073247 86.712564 -0.000000 -0.000000 0.000000 -6.700061 -22.214820 75.840781 13.352710 -6.393759 74.797825 -0.000000 -0.000002 -0.000000 -3.692249 -24.744694 90.215673 9.019896 13.553472 81.391253 -0.000000 0.000001 0.000002 -23.831063 -18.996771 3.372474 40.606902 -0.019597 0.260573 -13.735248 -5.529241 -17.241573 -0.000027 -0.000002 -0.000002 -0.000000 -0.000000 -0.000000 -17.988222 -32.143922 -27.429425 47.939510 -0.270724 -0.328355 -28.381695 -5.519297 9.540854 -0.000043 -0.000002 0.000000 -0.000000 0.000000 0.000000 
